Coordinates
version=1
nRows=5
nColumns=40
inDegrees=yes

Units are S.I. units (second, meters, Newtons, ...)
Angles are in degrees.

endheader
time	pelvis_tilt	pelvis_list	pelvis_rotation	pelvis_tx	pelvis_ty	pelvis_tz	hip_flexion_r	hip_adduction_r	hip_rotation_r	knee_angle_r	knee_angle_r_beta	ankle_angle_r	subtalar_angle_r	mtp_angle_r	hip_flexion_l	hip_adduction_l	hip_rotation_l	knee_angle_l	knee_angle_l_beta	ankle_angle_l	subtalar_angle_l	mtp_angle_l	lumbar_extension	lumbar_bending	lumbar_rotation	arm_flex_r	arm_add_r	arm_rot_r	elbow_flex_r	pro_sup_r	wrist_flex_r	wrist_dev_r	arm_flex_l	arm_add_l	arm_rot_l	elbow_flex_l	pro_sup_l	wrist_flex_l	wrist_dev_l
      1.88000000	     -2.63607688	     -1.10468390	     -4.00063468	      0.29892127	      0.88372324	      1.50887584	     -2.93642701	      2.06901772	    -14.47190843	    -20.36076620	     -0.35536241	     13.43159818	      6.00365655	     -7.68097024	     33.18239031	      7.10465487	     17.52342471	    -25.03397277	     -0.43692525	      4.75252770	      7.30261965	      6.47522076	     -3.69646967	      1.89994832	      3.48708638	      7.73177075	    -12.29773274	    -10.14900782	     41.89801498	     89.95437384	      0.00000000	      0.00000000	     -8.29205869	      5.89766652	     14.88572402	     21.58739417	     89.95437384	      0.00000000	      0.00000000
      1.89000000	     -2.86991970	     -1.25931202	     -3.92940574	      0.30814241	      0.88245325	      1.50808199	     -3.21265620	      2.13534103	    -14.42272382	    -20.63315755	     -0.36011653	     13.34378153	      5.87772612	     -7.61531439	     33.69205901	      7.06678783	     17.95722786	    -24.53635366	     -0.42824016	      4.90670115	      7.18460870	      6.35775119	     -3.47801850	      2.05921056	      3.25379005	      7.89335424	    -12.27039465	    -10.09258372	     42.26801122	     89.95437384	      0.00000000	      0.00000000	     -8.46650599	      5.88411242	     14.80469957	     21.51983330	     89.95437384	      0.00000000	      0.00000000
      1.90000000	     -3.05290514	     -1.00286244	     -4.29265310	      0.31785089	      0.88137816	      1.50749838	     -3.35429241	      1.63424864	    -13.97532913	    -21.26072370	     -0.37106963	     13.42176916	      5.77916240	     -7.67107140	     33.76048901	      6.86662134	     19.10677856	    -23.85802334	     -0.41640106	      4.79065189	      5.91366519	      5.64097932	     -3.23031504	      1.76168278	      3.66675706	      7.73493231	    -12.38265017	     -9.94133243	     42.70211140	     89.95437384	      0.00000000	      0.00000000	     -8.39435232	      5.85667479	     14.74436326	     21.12800807	     89.95437384	      0.00000000	      0.00000000
      1.91000000	     -3.21357339	     -1.05808881	     -4.32933133	      0.32778205	      0.88017980	      1.50689178	     -3.65887549	      1.54559661	    -13.77776383	    -21.71188616	     -0.37894390	     13.13614401	      5.61266676	     -7.54181061	     34.07653996	      6.71291037	     19.00963132	    -23.93604556	     -0.41776281	      4.70667850	      5.76994348	      5.51977359	     -2.99750584	      1.76603114	      3.62649316	      7.67682844	    -12.34504233	     -9.89504465	     42.96388382	     89.95437384	      0.00000000	      0.00000000	     -8.63745417	      5.88868122	     14.69897914	     21.28705976	     89.95437384	      0.00000000	      0.00000000
      1.92000000	     -3.16990291	     -0.99238711	     -4.63232749	      0.33813274	      0.87947116	      1.50636756	     -4.15423958	      1.26245399	    -13.23935342	    -22.19669612	     -0.38740543	     13.00150542	      5.62449492	     -7.54956567	     33.88167756	      6.58869870	     19.62789942	    -23.95679302	     -0.41812492	      5.02045245	      5.76996406	      5.15546766	     -2.96366242	      1.65355360	      3.93764491	      7.45307173	    -12.40399791	     -9.84608622	     43.38278016	     89.95437384	      0.00000000	      0.00000000	     -8.51610010	      5.88255115	     14.68709361	     20.88030000	     89.95437384	      0.00000000	      0.00000000
